# xmcd CD database file
#
# Track frame offsets:
#	160
#	12582
#	25780
#	43495
#	55622
#	69007
#	88612
#	99867
#	112322
#	124587
#	136077
#	156635
#	172100
#	183570
#	209512
#
# Disc length: 2931 seconds
#
# Revision: 1
# Processed by: cddbd v1.5.2PL0 Copyright (c) Steve Scherf et al.
# Submitted via: CDex 1.70beta2
#
DISCID=d30b710f
DTITLE=The Special Consensus - Green Rolling Hills
DYEAR=1993
DGENRE=Bluegrass
TTITLE0=Green Rolling Hills
TTITLE1=Don't Just Stand There
TTITLE2=Sounds Like a Heartache
TTITLE3=Heel and Toe Polka
TTITLE4=Oh the Highway to Your Heart
TTITLE5=I Will Whisper Your Name
TTITLE6=I'll Take the Rain
TTITLE7=Get Up Peter
TTITLE8=Scoot Git and be Gone
TTITLE9=Stealin' Away
TTITLE10=Oak Valley Girl
TTITLE11=Jerry's Breakdown
TTITLE12=I'm a Goin' On
TTITLE13=Dream of a Miner's Child
TTITLE14=Cimarron
EXTD=YEAR: 1993
EXTT0=
EXTT1=
EXTT2=
EXTT3=
EXTT4=
EXTT5=
EXTT6=
EXTT7=
EXTT8=
EXTT9=
EXTT10=
EXTT11=
EXTT12=
EXTT13=
EXTT14=
PLAYORDER=
